<?xml version="1.0" standalone="no"?>
<!DOCTYPE svg PUBLIC "-//W3C//DTD SVG 20010904//EN"
 "http://www.w3.org/TR/2001/REC-SVG-20010904/DTD/svg10.dtd">
<svg version="1.0" xmlns="http://www.w3.org/2000/svg"
 width="707.000000pt" height="353.000000pt" viewBox="0 0 707.000000 353.000000"
 preserveAspectRatio="xMidYMid meet">
<metadata>
Created by potrace 1.16, written by Peter Selinger 2001-2019
</metadata>
<g transform="translate(0.000000,353.000000) scale(0.100000,-0.100000)"
fill="#000000" stroke="none">
<path d="M994 2661 c-50 -23 -98 -80 -113 -135 -8 -28 -11 -143 -9 -356 l3
-315 30 0 30 0 5 335 c6 369 4 362 70 403 l35 22 1885 5 1885 5 0 25 0 25
-1890 2 c-1820 3 -1891 2 -1931 -16z"/>
<path d="M5351 2666 c-6 -7 -9 -21 -5 -29 5 -14 47 -16 342 -19 330 -3 338 -3
373 -26 71 -44 69 -18 69 -714 0 -708 4 -672 -80 -715 l-44 -23 -2003 0 -2004
0 -8 -22 c-5 -14 -5 -28 1 -35 8 -10 425 -13 2022 -13 l2011 0 53 25 52 24 0
-42 c0 -54 -26 -106 -69 -134 l-34 -23 -2492 0 -2492 0 -34 23 c-43 28 -69 80
-69 134 l0 43 43 -23 c41 -22 50 -22 438 -25 426 -3 430 -2 414 48 -6 20 -12
20 -385 20 -421 0 -439 2 -483 64 -21 29 -22 43 -27 251 l-5 220 -24 3 c-13 2
-28 -2 -32 -10 -13 -21 -11 -624 2 -669 16 -52 64 -108 113 -130 40 -18 130
-19 2541 -19 2411 0 2501 1 2541 19 49 22 97 78 113 130 16 54 16 1478 0 1532
-16 52 -64 108 -113 130 -37 17 -72 19 -377 19 -273 0 -339 -3 -348 -14z"/>
</g>
</svg>
